<?xml version="1.0" encoding="utf-8"?>
<!-- Generator: Adobe Illustrator 26.1.0, SVG Export Plug-In . SVG Version: 6.00 Build 0)  -->
<svg version="1.1" id="Layer_1" xmlns="http://www.w3.org/2000/svg" xmlns:xlink="http://www.w3.org/1999/xlink" x="0px" y="0px"
	 viewBox="0 0 157.5 395.9" style="enable-background:new 0 0 157.5 395.9;" xml:space="preserve">
<style type="text/css">
	.st0{fill:#BF7C3A;}
	.st1{fill:#F99C38;}
	.st2{fill:#231F20;}
	.st3{fill:#FFFFFF;}
</style>
<g>
	<g>
		<g>
			<g>
				<g>
					<path class="st0" d="M103.6,391c3.3-7.2,3.6-14.2,4.1-22.1c0.3-4.2-6.6-34.7-7.8-38.8C83.6,275,48.1,141.9,31.1,93.7
						c-2.1-6.1-9.5-8.7-8.6-16.2c0.2-1.6,0.8-3.1,0.9-4.6c0-1.4-0.4-2.8-0.8-4.1c-4.4-13.8-5.8-29.8-10.2-43.6
						c-1.4-4.4-2.7-9.7,0.3-13.2h4.6c4.4,1.3,6.3,6.4,7.6,10.8c3.9,14,11.7,28,15.6,42c0.4,1.4,0.8,2.7,1.6,3.9
						c0.9,1.3,2.3,2.2,3.3,3.4c5,5.8,0.3,12,1.9,18.3c12.5,49.6,56.6,180.1,73.4,235.1c1.2,4,12.4,33.3,14.9,36.6
						c4.8,6.3,8.9,12,15.6,16.1L103.6,391z"/>
					<path class="st1" d="M18.7,20c0,0-3.9-3.2,1,15.7c4.9,18.9,6.3,37.8,8.2,42.4c1.9,4.6,3.8,8.8,7.8,15.8c4,7,23,74.5,29.1,94.4
						s21.5,101.2,28.4,114c6.9,12.7,9.3,20.2,12.3,31.3c3,11.1,3.3,46.1,5.5,46.6c2.2,0.5,7.1-3,13.2-4.6c6.1-1.6,12.9-0.5,8.1-7.6
						c-4.8-7.1-15.8-39.5-21.4-55.3c-5.6-15.9-3.7-25.1-11.9-43.5c-8.3-18.3-18.2-59-22.9-72.9c-4.7-13.9-9.1-27.4-13.5-39.4
						S38.6,92.7,40.1,85.4c1.5-7.3,3.4-12,0.9-15.4c-2.5-3.4-2.1-5.6-5.3-11.8C32.5,51.9,18.7,20,18.7,20z"/>
				</g>
				<g>
					<g>
						<path class="st2" d="M104.6,391.6c4.7-10.9,4.9-22.3,2.7-33.7c-1.8-9.4-3.7-18.9-6.2-28.1c-6.3-22.7-13-45.4-19.4-68.1
							c-14.5-51.9-28.4-104.1-45.1-155.4c-1.4-4.2-2.6-8.5-4.2-12.6c-2.5-6.4-9.6-9.8-8.4-17.5c1.3-7.8-2.6-16-4.2-23.6
							c-1.9-9.3-3.6-18.7-6.3-27.8c-0.7-2.5-3.2-10.6-0.1-11.7c3.8-1.4,7.2,2.1,8.6,5.2c1.7,3.6,2.5,7.7,3.8,11.4
							c1.8,5.1,3.9,10.1,6,15.1c1.8,4.4,3.7,8.9,5.3,13.4c1.2,3.5,1.8,7.9,3.9,11c1.5,2.1,3.7,3.3,4.7,5.8c1,2.5,0.6,5,0.3,7.6
							c-0.4,3.2-0.5,6,0.3,9.2c5.3,21.9,12.4,43.5,19.1,65c8.6,27.6,17.5,55.2,26.5,82.8c7.9,24.5,15.9,48.9,23.6,73.4
							c2.6,8.3,5.2,16.5,8.4,24.7c3.3,8.5,6,18.7,11.6,26.1c4.3,5.8,9,11.3,15.1,15.3c0.1-0.7,0.2-1.5,0.3-2.2
							c-15.9,4.3-31.7,8.7-47.6,13c-1.5,0.4-0.9,2.7,0.6,2.3c15.9-4.3,31.7-8.7,47.6-13c1-0.3,1.1-1.7,0.3-2.2
							c-11.4-7.4-17-18.4-21.9-30.4c-3.5-8.7-6.9-17.4-9.7-26.4c-7.4-23.8-15.1-47.5-22.8-71.2C81.1,198.3,63.7,147.6,49.9,96.1
							c-0.5-2-1.1-3.9-1.5-5.9c-0.9-4.4,0.8-8.5,0.4-12.8C48.5,74.2,47,72.3,45,70c-3.8-4.5-4.8-10.2-6.8-15.7
							C34.7,45,30.4,36,27.3,26.6c-1.7-5.1-2.8-13.1-8.5-15.4c-3.5-1.4-7.2-1.1-8.5,2.7c-1,2.8-0.5,6,0.2,8.8
							c1.2,4.8,2.8,9.4,3.8,14.3c2.1,9.3,3.4,18.8,6,28c0.6,2.2,1.6,4.4,1.8,6.6c0.3,2.2-0.6,4.3-0.7,6.5c-0.1,2.7,0.7,5.1,2.3,7.4
							c1.7,2.4,4,4.3,5.5,6.8c1.3,2.3,2,5,2.8,7.5c1.6,4.6,3,9.2,4.5,13.8c3.7,11.6,7.1,23.2,10.6,34.8
							c8.2,27.9,16.1,55.9,23.9,83.8c7.3,25.9,14.4,51.8,21.8,77.6c2.5,8.7,5.3,17.2,7.3,26c2.4,10.2,5.5,20.9,6.3,31.3
							c0.6,7.6-0.8,16.3-3.9,23.2C101.9,391.8,104,393.1,104.6,391.6z"/>
					</g>
				</g>
			</g>
			<g>
				<g>
					<path class="st0" d="M48.4,94.3c-2.7-0.4-5.4-0.7-8.1-0.3c-2.7,0.4-5.4,1.7-6.9,4l-1.5-5.3c0.7-2.4,3.2-3.8,5.6-4.5
						c2.8-0.9,5.8-1.2,8.7-1L48.4,94.3z"/>
				</g>
				<g>
					<g>
						<path class="st2" d="M48.4,93c-5.9-0.8-12.1-1-16.1,4.2c0.7,0.1,1.5,0.2,2.2,0.3c-0.4-1.4-1.6-3.6-1.4-5
							c0.2-1.7,3.3-2.9,4.7-3.4c2.7-0.9,5.5-1.1,8.4-1c-0.4-0.3-0.8-0.6-1.2-0.9c0.8,2.4,1.5,4.8,2.3,7.2c0.5,1.5,2.8,0.8,2.3-0.6
							c-0.8-2.4-1.5-4.8-2.3-7.2c-0.2-0.5-0.6-0.9-1.2-0.9c-4.7-0.2-11.9,0.4-14.7,4.9c-1.4,2.3,0.1,5.1,0.8,7.5
							c0.3,1.1,1.6,1.1,2.2,0.3c3.3-4.4,9.2-3.7,14-3C49.9,95.7,49.9,93.3,48.4,93z"/>
					</g>
				</g>
			</g>
			<g>
				<g>
					<path class="st0" d="M19.7,52.2c2.2-1.3,4.5-2.5,6.9-3.5c2.3-1,4.8-2,7.3-1.6l1.8,5.4c-5.2,1-10.5,2.3-14.6,5.6L19.7,52.2z"/>
				</g>
				<g>
					<g>
						<path class="st2" d="M20.4,53.3c4-2.3,8.8-5.3,13.6-5c-0.4-0.3-0.8-0.6-1.2-0.9c0.6,1.8,1.2,3.6,1.8,5.5
							c0.3-0.5,0.6-1,0.8-1.5c-5.3,1-10.5,2.4-14.9,5.8c0.6,0.2,1.2,0.5,1.8,0.7c-0.4-2-0.9-4-1.3-5.9c-0.3-1.5-2.7-0.9-2.3,0.6
							c0.4,2,0.9,4,1.3,5.9c0.2,0.7,1.2,1.2,1.8,0.7c4.2-3.2,9.2-4.5,14.3-5.5c0.6-0.1,1-0.9,0.8-1.5c-0.6-1.8-1.2-3.6-1.8-5.4
							c-0.2-0.5-0.6-0.9-1.2-0.9c-5.2-0.4-10.4,2.8-14.8,5.3C17.8,52,19,54,20.4,53.3z"/>
					</g>
				</g>
			</g>
			<g>
				<g>
					<path class="st0" d="M15.7,38.8c2.1-1.2,4.2-2.3,6.4-3.3c2.1-1,4.5-1.9,6.8-1.5l1.6,5.1c-4.8,0.9-9.8,2.1-13.6,5.2L15.7,38.8z"
						/>
				</g>
				<g>
					<g>
						<path class="st2" d="M16.3,39.9c3.7-2.1,8.1-4.9,12.6-4.6c-0.4-0.3-0.8-0.6-1.2-0.9c0.5,1.7,1.1,3.4,1.6,5.1
							c0.3-0.5,0.6-1,0.8-1.5c-4.9,1-9.8,2.2-13.9,5.4c0.6,0.2,1.2,0.5,1.8,0.7c-0.4-1.8-0.8-3.7-1.2-5.5c-0.3-1.5-2.7-0.9-2.3,0.6
							c0.4,1.8,0.8,3.7,1.2,5.5c0.2,0.7,1.2,1.2,1.8,0.7c3.9-3,8.5-4.2,13.3-5.1c0.6-0.1,1-0.9,0.8-1.5c-0.5-1.7-1.1-3.4-1.6-5.1
							c-0.2-0.5-0.6-0.9-1.2-0.9c-4.9-0.4-9.7,2.6-13.8,5C13.8,38.6,15,40.7,16.3,39.9z"/>
					</g>
				</g>
			</g>
			<g>
				<g>
					<path class="st0" d="M33.1,43.9c0.5,0.5,1.3,0.8,2,0.9c0.7,0.1,1.5,0.1,2.2,0.4c0.3,0.1,0.6,0.2,0.9,0.3
						c0.8,0.1,1.4-0.6,1.8-1.2c0.7-1.1,1.2-2.5,0.8-3.9c-0.4-1.3-1.7-2.4-3-2.1c-1.1,0.2-1.8,1.2-2.4,2.1c-0.1,0.2-0.3,0.4-0.4,0.6
						c-0.1,0.2-0.1,0.5-0.2,0.8c-0.2,0.6-0.6,1.1-1.1,1.4L33.1,43.9z"/>
				</g>
				<g>
					<g>
						<path class="st2" d="M32.2,44.7c1,0.9,2.1,1.1,3.4,1.3c1.4,0.2,2.7,1,4,0.2c2.2-1.3,3.2-4.9,2-7.1c-1.2-2.2-3.9-2.8-5.8-1.2
							c-0.9,0.8-1.6,1.8-2.1,2.9c-0.2,0.4-0.1,0.5-0.4,0.9c-0.2,0.3-0.5,0.5-0.7,0.8c-0.2,0.3-0.4,0.5-0.6,0.8
							c-0.9,1.3,1.2,2.5,2.1,1.2c0.5-0.7,1.1-0.9,1.5-1.8c0.6-1.1,1.1-3.6,2.8-3.3c1.9,0.3,1.4,3.5,0.3,4.4c-0.7,0.5-1.4,0-2.2-0.1
							c-0.9-0.1-1.9-0.1-2.6-0.7C32.8,42,31.1,43.7,32.2,44.7z"/>
					</g>
				</g>
			</g>
			<g>
				<g>
					<path class="st0" d="M29.2,33.1c0.5,0.5,1.3,0.8,2,0.9s1.5,0.1,2.2,0.4c0.3,0.1,0.6,0.2,0.9,0.3c0.8,0.1,1.4-0.6,1.8-1.2
						c0.7-1.1,1.2-2.5,0.8-3.9c-0.4-1.3-1.7-2.4-3-2.1c-1.1,0.2-1.8,1.2-2.4,2.1c-0.1,0.2-0.3,0.4-0.4,0.6c-0.1,0.2-0.1,0.5-0.2,0.8
						c-0.2,0.6-0.6,1.1-1.1,1.4L29.2,33.1z"/>
				</g>
				<g>
					<g>
						<path class="st2" d="M28.3,34c1,0.9,2.1,1.1,3.4,1.3c1.4,0.2,2.7,1,4,0.2c2.2-1.3,3.2-4.9,2-7.1c-1.2-2.2-3.9-2.8-5.8-1.2
							c-0.9,0.8-1.6,1.8-2.1,2.9c-0.2,0.4-0.1,0.5-0.4,0.9c-0.2,0.3-0.5,0.5-0.7,0.8c-0.2,0.3-0.4,0.5-0.6,0.8
							c-0.9,1.3,1.2,2.5,2.1,1.2c0.5-0.7,1.1-0.9,1.5-1.8c0.6-1.1,1.1-3.6,2.8-3.3c1.9,0.3,1.4,3.5,0.3,4.4c-0.7,0.5-1.4,0-2.2-0.1
							c-0.9-0.1-1.9,0-2.6-0.7C28.9,31.2,27.1,32.9,28.3,34z"/>
					</g>
				</g>
			</g>
			<g>
				<g>
					<path class="st0" d="M61.1,153.5L61.1,153.5c-0.8,1.6-2.7,2.5-4.4,2.2c-0.3,0-0.6-0.1-0.9-0.3c-0.3-0.1-0.6-0.3-0.9-0.6
						c-0.8-0.8-1.2-2.1-0.9-3.3C55.6,145.6,63.2,149.4,61.1,153.5z"/>
				</g>
				<g>
					<g>
						<path class="st2" d="M60.1,152.9c-0.9,1.7-4.1,2.5-4.9,0.3c-0.4-1.2,0.3-3,1.5-3.4C58.5,149.2,60.9,151,60.1,152.9
							c-0.6,1.4,1.4,2.6,2.1,1.2c2-4.4-3.5-8.9-7.4-6c-2.3,1.7-2.9,5.4-0.8,7.5c2.3,2.3,6.7,1.3,8.2-1.6
							C62.9,152.7,60.8,151.5,60.1,152.9z"/>
					</g>
				</g>
			</g>
			<g>
				<g>
					<path class="st0" d="M65.9,171.3L65.9,171.3c-0.8,1.6-2.7,2.5-4.4,2.2c-0.3,0-0.6-0.1-0.9-0.3c-0.3-0.1-0.6-0.3-0.9-0.6
						c-0.8-0.8-1.2-2.1-0.9-3.3C60.3,163.4,68,167.2,65.9,171.3z"/>
				</g>
				<g>
					<g>
						<path class="st2" d="M64.9,170.7c-0.9,1.7-4.1,2.5-4.9,0.3c-0.4-1.2,0.3-3,1.5-3.4C63.3,167,65.7,168.8,64.9,170.7
							c-0.6,1.4,1.4,2.6,2.1,1.2c2-4.4-3.5-8.9-7.4-6c-2.3,1.7-2.9,5.4-0.8,7.5c2.3,2.3,6.7,1.3,8.2-1.6
							C67.6,170.5,65.6,169.3,64.9,170.7z"/>
					</g>
				</g>
			</g>
			<g>
				<g>
					<path class="st0" d="M80.7,216.1L80.7,216.1c-0.8,1.6-2.7,2.5-4.4,2.2c-0.3,0-0.6-0.1-0.9-0.3c-0.3-0.1-0.6-0.3-0.9-0.6
						c-0.8-0.8-1.2-2.1-0.9-3.3C75.1,208.2,82.8,212,80.7,216.1z"/>
				</g>
				<g>
					<g>
						<path class="st2" d="M79.6,215.5c-0.9,1.7-4.1,2.5-4.9,0.3c-0.4-1.2,0.3-3,1.5-3.4C78.1,211.8,80.5,213.6,79.6,215.5
							c-0.6,1.4,1.4,2.6,2.1,1.2c2-4.4-3.5-8.9-7.4-6c-2.3,1.7-2.9,5.4-0.8,7.5c2.3,2.3,6.7,1.3,8.2-1.6
							C82.4,215.3,80.3,214.1,79.6,215.5z"/>
					</g>
				</g>
			</g>
			<g>
				<g>
					<path class="st0" d="M89.2,245L89.2,245c-0.8,1.6-2.7,2.5-4.4,2.2c-0.3,0-0.6-0.1-0.9-0.3c-0.3-0.2-0.6-0.3-0.9-0.6
						c-0.8-0.8-1.2-2.1-0.9-3.3C83.6,237.1,91.3,240.9,89.2,245z"/>
				</g>
				<g>
					<g>
						<path class="st2" d="M88.2,244.4c-0.9,1.7-4.1,2.5-4.9,0.3c-0.4-1.2,0.3-3,1.5-3.4C86.6,240.7,89,242.5,88.2,244.4
							c-0.6,1.4,1.4,2.6,2.1,1.2c2-4.4-3.5-8.9-7.4-6c-2.3,1.7-2.9,5.4-0.8,7.5c2.3,2.3,6.7,1.3,8.2-1.6
							C90.9,244.2,88.9,243,88.2,244.4z"/>
					</g>
				</g>
			</g>
			<g>
				<g>
					<path class="st0" d="M69.7,184.9L69.7,184.9c-0.8,1.6-2.7,2.4-4.4,2.2c-0.3,0-0.6-0.1-1-0.3c-0.3-0.2-0.6-0.3-0.9-0.6
						c-0.8-0.8-1.2-2.1-0.9-3.3C64.1,177,71.8,180.8,69.7,184.9z"/>
				</g>
				<g>
					<g>
						<path class="st2" d="M68.7,184.3c-0.9,1.7-4.1,2.5-4.9,0.3c-0.4-1.2,0.3-3,1.5-3.4C67.1,180.6,69.5,182.4,68.7,184.3
							c-0.6,1.4,1.4,2.6,2.1,1.2c2-4.4-3.5-8.9-7.4-6c-2.3,1.7-2.9,5.4-0.8,7.5c2.3,2.3,6.7,1.3,8.2-1.6
							C71.4,184.1,69.4,182.9,68.7,184.3z"/>
					</g>
				</g>
			</g>
			<g>
				<g>
					<path class="st0" d="M84.5,229.4L84.5,229.4c-0.8,1.6-2.7,2.5-4.4,2.2c-0.3,0-0.6-0.1-0.9-0.3c-0.3-0.1-0.6-0.3-0.9-0.6
						c-0.8-0.8-1.2-2.1-0.9-3.3C78.9,221.5,86.6,225.3,84.5,229.4z"/>
				</g>
				<g>
					<g>
						<path class="st2" d="M83.4,228.8c-0.9,1.7-4.1,2.5-4.9,0.3c-0.4-1.2,0.3-3,1.5-3.4C81.9,225.1,84.3,226.9,83.4,228.8
							c-0.6,1.4,1.4,2.6,2.1,1.2c2-4.4-3.5-8.9-7.4-6c-2.3,1.7-2.9,5.4-0.8,7.5c2.3,2.3,6.7,1.3,8.2-1.6
							C86.2,228.6,84.1,227.4,83.4,228.8z"/>
					</g>
				</g>
			</g>
			<g>
				<g>
					<path class="st1" d="M92.6,268c4.6-1.2,9-3,13.4-5c1.4-0.6,2.8-1.3,3.8-2.3c1-1.1,1.6-2.8,0.9-4.1c-0.6-1.3-2.1-1.9-3.5-2
						c-1.4,0-2.8,0.5-4.1,1c-2.8,1.1-5.6,2.3-8.3,3.6c-1.4,0.7-2.8,1.3-3.8,2.5s-1.6,2.8-0.9,4.2c0.1,0.3,0.3,0.6,0.7,0.7L92.6,268z
						"/>
				</g>
				<g>
					<g>
						<path class="st2" d="M92.9,269.1c3.3-0.9,6.6-2,9.7-3.4c2.6-1.1,6.1-2.1,8-4.4c2.9-3.4,0.9-7.8-3.5-8c-3-0.1-6.1,1.7-8.8,2.9
							c-2.7,1.2-6.2,2.2-8.2,4.5c-3,3.4-1.1,6,1.8,8.2c1.2,0.9,2.5-1.2,1.2-2.1c-0.4-0.3-1.1-0.6-1.4-1.1c-1.8-2.4,1.4-4.5,3.1-5.4
							c3.1-1.5,6.5-3.3,9.9-4.2c2.4-1.3,3.3-0.6,2.5,2.1c0.9,1.7,0.6,2.7-0.9,3.1c-0.9,0.8-2.5,1.2-3.6,1.6
							c-3.4,1.5-6.9,2.7-10.5,3.7C90.8,267.2,91.4,269.5,92.9,269.1z"/>
					</g>
				</g>
			</g>
			<g>
				<g>
					<path class="st1" d="M88.5,257.3c4.6-1.2,9-3,13.4-5c1.4-0.6,2.8-1.3,3.8-2.3c1-1.1,1.6-2.8,0.9-4.1c-0.6-1.3-2.1-1.9-3.5-2
						s-2.8,0.5-4.1,1c-2.8,1.1-5.6,2.3-8.3,3.6c-1.4,0.7-2.8,1.3-3.8,2.5s-1.6,2.8-0.9,4.2c0.1,0.3,0.3,0.6,0.7,0.7L88.5,257.3z"/>
				</g>
				<g>
					<g>
						<path class="st2" d="M88.9,258.4c3.3-0.9,6.6-2,9.7-3.4c2.6-1.1,6.1-2.1,8-4.4c2.9-3.4,0.9-7.8-3.5-8c-3-0.1-6.1,1.7-8.8,2.9
							c-2.7,1.2-6.2,2.2-8.2,4.5c-3,3.4-1.1,6,1.8,8.2c1.2,0.9,2.5-1.2,1.2-2.1c-0.4-0.3-1.1-0.6-1.4-1.1c-1.8-2.4,1.4-4.5,3.1-5.4
							c3.1-1.6,6.5-3.3,9.8-4.2c2.4-1.3,3.3-0.6,2.5,2.1c0.8,1.7,0.5,2.7-0.9,3.1c-0.9,0.8-2.5,1.2-3.6,1.6
							c-3.4,1.5-6.9,2.7-10.5,3.7C86.7,256.5,87.4,258.8,88.9,258.4z"/>
					</g>
				</g>
			</g>
			<g>
				<g>
					<path class="st0" d="M97.4,267.8c3.6,14.2,9.9,34.3,13.5,48.5c0,0,0,0.1,0,0.1c0.6,2.3-2.9,3.3-3.6,1c-4.6-14-10.2-37-14-49
						L97.4,267.8z"/>
				</g>
				<g>
					<g>
						<path class="st2" d="M96.2,268.1c2.2,8.7,4.7,17.2,7.2,25.8c1.2,4.3,2.5,8.6,3.7,13c0.6,2.1,1.2,4.3,1.7,6.4
							c0.2,0.6,0.9,2.1,0.7,2.7c-0.4,1.4-1.4-0.2-1.9-1.2c-1.7-3.3-2.3-7.7-3.4-11.3c-1.2-4.1-2.3-8.2-3.4-12.3
							c-2.1-7.7-4.1-15.4-6.5-23c-0.3,0.5-0.6,1-0.8,1.5c1.4-0.2,2.7-0.5,4.1-0.7c1.5-0.3,0.9-2.6-0.6-2.3c-1.4,0.2-2.7,0.5-4.1,0.7
							c-0.6,0.1-1,0.9-0.9,1.5c3.1,9.8,5.6,19.7,8.3,29.5c1.5,5.3,2.9,10.6,4.6,15.8c0.7,2.2,1.2,5.9,4.2,5.8c2.3-0.1,2.9-2,2.9-3.9
							c-0.1-4.5-2.6-9.9-3.9-14.3c-3.2-11.4-6.7-22.8-9.6-34.3C98.1,266,95.8,266.6,96.2,268.1z"/>
					</g>
				</g>
			</g>
			<g>
				<g>
					<path class="st0" d="M90.8,235.7c-3.9,1-7.9,1.8-11.8,2.3c-0.4,0-0.8,0.1-1.1,0c-0.4-0.1-0.7-0.5-0.6-0.8
						c0-0.4,0.4-0.7,0.7-0.8c2.1-1.3,4.7-1.8,7.2-2.3c2-0.4,4-0.8,5.9-1.2L90.8,235.7z"/>
				</g>
				<g>
					<g>
						<path class="st2" d="M90.4,234.5c-1.9,0.5-3.9,1-5.9,1.3c-1,0.2-2,0.4-3,0.5c-0.7,0.1-1.3,0.2-2,0.3c-1.3,0.7-1.5,0.8-0.7,0.4
							c2.1-0.7,3.9-1.4,6-1.8c2.1-0.4,4.3-0.8,6.4-1.2c-0.5-0.4-1-0.8-1.5-1.2c-0.1,0.9-0.1,1.9-0.2,2.8c-0.1,1.5,2.3,1.5,2.4,0
							c0.1-0.9,0.1-1.9,0.2-2.8c0.1-0.8-0.8-1.3-1.5-1.2c-2.7,0.5-15.2,1.4-14.7,5.8c0.3,2.1,2.8,1.8,4.3,1.6
							c3.6-0.5,7.3-1.3,10.8-2.2C92.6,236.5,91.9,234.2,90.4,234.5z"/>
					</g>
				</g>
			</g>
			<g>
				<g>
					<path class="st0" d="M81.8,204.3c-3.9,1-7.9,1.8-11.8,2.3c-0.4,0-0.8,0.1-1.1,0c-0.4-0.1-0.7-0.5-0.6-0.8s0.1-1.5,0.5-1.7
						c2.2-1.3,4.8-1.4,7.3-1.8c2-0.4,3.1-0.4,5.1-0.7L81.8,204.3z"/>
				</g>
				<g>
					<g>
						<path class="st2" d="M81.4,203.1c-2.1,0.5-4.2,1-6.4,1.4c-1.1,0.2-2.3,0.5-3.5,0.6c-0.8,0.1-3.7,0.5-1.2-0.6
							c3.2-1.5,7.5-1.3,10.9-1.9c-0.5-0.3-1-0.6-1.5-0.8c0.2,0.9,0.5,1.9,0.7,2.8c0.4,1.5,2.7,0.9,2.3-0.6c-0.2-0.9-0.5-1.9-0.7-2.8
							c-0.2-0.7-0.9-1-1.5-0.8c-3.3,0.6-6.9,0.7-10.1,1.6c-1.9,0.5-3.7,1.3-3.6,3.6c0.1,2,1.6,2.4,3.3,2.2c4-0.3,8-1.3,11.8-2.3
							C83.6,205.1,82.9,202.7,81.4,203.1z"/>
					</g>
				</g>
			</g>
			<g>
				<g>
					<path class="st0" d="M78.4,194.5c-3.9,1-7.8,1.8-11.8,2.3c-0.4,0-0.8,0.1-1.1,0c-0.4-0.1-0.7-0.5-0.6-0.8s0.1-1.5,0.5-1.7
						c2.2-1.3,4.8-1.4,7.3-1.8c2-0.4,3.1-0.4,5.1-0.7L78.4,194.5z"/>
				</g>
				<g>
					<g>
						<path class="st2" d="M78.1,193.4c-2.1,0.5-4.2,1-6.4,1.4c-1.1,0.2-2.3,0.5-3.5,0.6c-0.8,0.1-3.7,0.5-1.2-0.6
							c3.2-1.5,7.5-1.3,10.9-1.9c-0.5-0.3-1-0.6-1.5-0.8c0.2,0.9,0.5,1.9,0.7,2.8c0.4,1.5,2.7,0.9,2.3-0.6c-0.2-0.9-0.5-1.9-0.7-2.8
							c-0.2-0.7-0.9-1-1.5-0.8c-3.3,0.6-6.9,0.7-10.1,1.6c-1.9,0.5-3.7,1.3-3.6,3.6c0.1,2,1.6,2.4,3.3,2.2c4-0.3,8-1.3,11.8-2.3
							C80.3,195.3,79.6,193,78.1,193.4z"/>
					</g>
				</g>
			</g>
			<g>
				<g>
					<path class="st0" d="M46.6,139.6c3.9,0.4,7.7,0.5,11.6,0.3c1.7-0.1,3.5-0.2,5.1-0.9c1.6-0.7,3.1-2,3.5-3.6
						c0.2-0.8,0.2-1.5,0.2-2.3c0-0.9-0.1-1.9-0.8-2.3c-0.7-0.4-1.6,0-2.1,0.5c-0.5,0.6-0.9,1.3-1.3,2c-0.8,1-1.9,1.7-3.1,2
						c-0.6,0.1-1.3,0.1-1.9,0.1c-4.3,0-8.5-0.1-12.8-0.1L46.6,139.6z"/>
				</g>
				<g>
					<g>
						<path class="st2" d="M46.6,140.8c5.8,0.5,24.3,2.5,21.6-8.9c-0.6-2.6-2.6-3.2-4.8-1.7c-1.1,0.7-1.6,1.7-2.9,2.5
							c-2.1,1.4-2.8,1.2-5.2,1.2c-3.5,0-6.9,0-10.4-0.1c-0.7,0-1.4,0.8-1.2,1.5c0.6,1.5,1.1,3,1.7,4.5c0.5,1.4,2.9,0.8,2.3-0.6
							c-0.6-1.5-1.1-3-1.7-4.5c-0.4,0.5-0.8,1-1.2,1.5c4.2,0,8.5,0.2,12.8,0.1c1.9-0.1,3.5-0.2,5-1.5c0.4-0.4,2.3-3.6,3.1-1.9
							c-0.4,1.2-0.8,2.5-1.2,3.7c-1.5,1.2-3.2,1.9-5.2,1.9c-4.2,0.5-8.7,0.2-12.9-0.2C45,138.3,45,140.7,46.6,140.8z"/>
					</g>
				</g>
			</g>
			<g>
				<g>
					<path class="st0" d="M43.4,128.8c3.9,0.4,7.7,0.5,11.6,0.3c1.8-0.1,3.5-0.2,5.1-0.9s3.1-2,3.5-3.6c0.2-0.8,0.2-1.6,0.2-2.3
						c0-0.9-0.1-1.9-0.8-2.3c-0.7-0.4-1.6,0-2.1,0.5c-0.5,0.6-0.9,1.3-1.3,2c-0.8,1-1.9,1.7-3.1,2c-0.6,0.1-1.3,0.1-1.9,0.1
						c-4.3,0-8.5-0.1-12.8-0.1L43.4,128.8z"/>
				</g>
				<g>
					<g>
						<path class="st2" d="M43.4,130c5.8,0.5,24.3,2.5,21.6-8.9c-0.6-2.6-2.6-3.2-4.8-1.7c-1.1,0.7-1.6,1.7-2.9,2.5
							c-2.1,1.4-2.8,1.2-5.2,1.2c-3.5,0-6.9,0-10.4-0.1c-0.7,0-1.4,0.8-1.2,1.5c0.6,1.5,1.1,3,1.7,4.5c0.5,1.4,2.9,0.8,2.3-0.6
							c-0.6-1.5-1.1-3-1.7-4.5c-0.4,0.5-0.8,1-1.2,1.5c4.2,0,8.5,0.2,12.8,0.1c1.9-0.1,3.5-0.3,5-1.5c0.4-0.4,2.3-3.6,3.1-1.9
							c-0.4,1.2-0.8,2.5-1.2,3.7c-1.5,1.2-3.2,1.9-5.1,1.9c-4.2,0.5-8.7,0.2-12.9-0.2C41.8,127.5,41.8,129.9,43.4,130z"/>
					</g>
				</g>
			</g>
		</g>
		<path class="st0" d="M105.5,349c0,0,5.6,22,1.8,34.7c0,0,1.1,2.8,2,0C110.3,380.8,111,352.1,105.5,349z"/>
		<path class="st2" d="M140,372.2c0,0-12.4-14.4-14.3-25.4c0,0-1.8-1.7-1.5,0.8C124.6,350,134.7,371.9,140,372.2z"/>
		<path class="st2" d="M138.8,375.6c0,0-7.5-7-9.2-12.8c0,0-1.1-0.8-0.8,0.5S135.9,375.7,138.8,375.6z"/>
		<path class="st2" d="M109.5,378.6c0,0,1.9-14.1-1.4-21.7c0,0,0.4-1.8,1.3-0.2C110.1,358.4,112.6,376.2,109.5,378.6z"/>
		<path class="st2" d="M111.6,380.2c0,0,1.8-7.4,0.5-11.8c0,0,0.4-1,0.7,0C113.2,369.4,113.5,379.1,111.6,380.2z"/>
		<path class="st2" d="M134.7,379.7c0,0-7.6,0.8-11.2,3.4c0,0-1,0-0.2-0.7C124,381.9,133,378.3,134.7,379.7z"/>
		<path class="st2" d="M118.4,384.7c0,0-4.7,0.5-7,2.1c0,0-0.6,0-0.1-0.4C111.7,386,117.3,383.8,118.4,384.7z"/>
		<path class="st2" d="M137,377.6c0,0-4.8,0.3-7.1,1.8c0,0-0.6,0-0.1-0.4C130.3,378.7,136,376.7,137,377.6z"/>
		<path class="st2" d="M121.6,383.3c0-0.1-0.2-0.2-0.3-0.2l-2.1,0.5c-0.1,0-0.2,0.2-0.2,0.3l0,0c0,0.1,0.2,0.2,0.3,0.2l2.1-0.5
			C121.6,383.6,121.7,383.5,121.6,383.3L121.6,383.3z"/>
	</g>
	<g>
		<path class="st2" d="M51.5,123c-0.1-5.1-1.6-9.7-2.9-14.6c-1.3-4.8-2.3-9.6-2.8-14.6c0-0.3-0.5-0.1-0.5,0.1
			c0.2,5,1.5,9.8,2.8,14.6c1.3,4.8,2.3,9.6,3.3,14.5C51.4,123.2,51.5,123.1,51.5,123L51.5,123z"/>
	</g>
	<g>
		<path class="st2" d="M27.6,74.2c0.1-5.2-1.2-10.5-2.9-15.2c-0.1-0.1-0.4,0-0.3,0.1C25.9,64,26.6,69,27.6,74.2
			C27.5,74.2,27.6,74.2,27.6,74.2L27.6,74.2z"/>
	</g>
	<g>
		<path class="st2" d="M29.3,70c0.1-5.2-1.2-10.5-2.9-15.2c-0.1-0.1-0.4,0-0.3,0.1C27.5,59.8,28.3,64.8,29.3,70
			C29.2,70,29.3,70,29.3,70L29.3,70z"/>
	</g>
	<g>
		<path class="st2" d="M45.3,109.8c0.1-5.2-1.2-10.5-2.9-15.2c-0.1-0.1-0.4,0-0.3,0.1C43.5,99.6,44.3,104.6,45.3,109.8
			C45.2,109.8,45.3,109.8,45.3,109.8L45.3,109.8z"/>
	</g>
	<g>
		<path class="st2" d="M36.4,67.9c0.1-5.2-1.2-10.5-2.9-15.2c-0.1-0.1-0.4,0-0.3,0.1C34.6,57.8,35.4,62.8,36.4,67.9
			C36.3,68,36.4,68,36.4,67.9L36.4,67.9z"/>
	</g>
	<g>
		<path class="st2" d="M96.3,297.3c-0.1-5.2-1.6-9.7-2.9-14.6c-1.3-4.8-2.3-9.6-2.8-14.6c0-0.3-0.5-0.1-0.5,0.1
			c0.2,5.1,1.5,9.8,2.8,14.6s2.3,9.6,3.3,14.5C96.1,297.4,96.3,297.3,96.3,297.3L96.3,297.3z"/>
	</g>
	<g>
		<path class="st2" d="M87.4,269.9c0.1-5.2-1.2-10.5-2.9-15.2c-0.1-0.2-0.4,0-0.3,0.1C85.6,259.8,86.4,264.8,87.4,269.9
			C87.3,269.9,87.4,269.9,87.4,269.9L87.4,269.9z"/>
	</g>
	<g>
		<path class="st2" d="M101.3,312.6c0.1-5.2-1.2-10.5-2.9-15.2c-0.1-0.2-0.4,0-0.3,0.1C99.5,302.5,100.3,307.5,101.3,312.6
			C101.2,312.7,101.2,312.7,101.3,312.6L101.3,312.6z"/>
	</g>
	<g>
		<path class="st2" d="M91.4,289.3c0.1-5.2-1.2-10.5-2.9-15.2c-0.1-0.2-0.4,0-0.3,0.1C89.7,279.2,90.5,284.2,91.4,289.3
			C91.4,289.4,91.4,289.4,91.4,289.3L91.4,289.3z"/>
	</g>
</g>
<path class="st3" d="M1769.1,158.3"/>
</svg>
