<?xml version="1.0" encoding="utf-8"?>
<!-- Generator: Adobe Illustrator 26.1.0, SVG Export Plug-In . SVG Version: 6.00 Build 0)  -->
<svg version="1.1" id="Layer_1" xmlns="http://www.w3.org/2000/svg" xmlns:xlink="http://www.w3.org/1999/xlink" x="0px" y="0px"
	 viewBox="0 0 932 792" style="enable-background:new 0 0 932 792;" xml:space="preserve">
<style type="text/css">
	.st0{fill:#E9E5E2;}
	.st1{fill:#E5DED8;}
	.st2{fill:#DDBE91;}
	.st3{fill:#CA9858;}
	.st4{fill:#DDBE8E;}
	.st5{fill:#D1AD75;}
	.st6{fill:#884E27;}
	.st7{fill:#DEB779;}
	.st8{fill:#D1A466;}
	.st9{fill:#E2C9A6;}
	.st10{fill:#834518;}
	.st11{fill:#8A4A22;}
	.st12{fill:#D08535;}
	.st13{fill:#C18A45;}
	.st14{fill:#B27936;}
	.st15{fill:#C99350;}
	.st16{fill:#973A33;}
	.st17{fill:#DEB16D;}
	.st18{fill:#451F0A;}
	.st19{fill:#3A1B07;}
	.st20{fill:#88592C;}
	.st21{fill:#9F6E3B;}
	.st22{fill:#956934;}
	.st23{fill:#D7AE6C;}
	.st24{fill:#23160B;}
	.st25{fill:#E3BB7C;}
	.st26{fill:#E0B777;}
	.st27{fill:#AF7E49;}
	.st28{fill:#A87742;}
	.st29{fill:#D4A464;}
	.st30{fill:#46230A;}
	.st31{fill:#452307;}
	.st32{fill:#E7BF7E;}
	.st33{fill:#1B0F08;}
	.st34{fill:#49321E;}
</style>
<g>
	<path class="st0" d="M255.1,446.03"/>
	<path class="st0" d="M894,657.9c0,3.75-0.84,4.59-4.59,4.59"/>
	<path class="st1" d="M255.65,447.47"/>
	<path class="st2" d="M759.96,385.55c1.32-0.01,2.64-0.03,3.97-0.04c1.61,7.61,0.73,15.29,0.55,22.95
		c-0.01,0.38-0.97,0.74-1.49,1.11c-12.38-0.11-24.77-0.46-37.12,0.85c-1.56-1.29-1.49-3.06-1.42-4.83c0.01-1.96-0.42-3.92-0.03-5.88
		c-0.25-3.22-0.23-6.45-0.21-9.67c0.04-0.51,0.21-0.99,0.48-1.42c2.3-1.93,4.32-0.59,5.55,1.13c2.54,3.57,5.74,4.25,9.88,4
		c3.61-0.22,7.23,0.89,10.77,1.83c1.65,0.44,3.45,0.84,4.66-0.62c1.51-1.82-0.88-2.43-1.5-3.59c-1.39-2.6-0.5-4.14,2.18-4.76
		C757.5,386.31,758.93,386.67,759.96,385.55z"/>
	<path class="st0" d="M182.15,440.11c-0.53,1.2-0.49,2.67-1.11,3.8"/>
	<path class="st3" d="M198.22,389.74c8.27-0.1,16.55-0.21,24.82-0.31c1.59-0.75,3.28-0.39,4.93-0.4c10.33-0.04,20.66-0.12,30.99,0
		c28.65,0.32,57.29-0.61,85.93-0.57c5.27,0.01,10.55-0.78,15.95-0.26c-1.64,3.56-2.87,4.5-7.26,5.74c-1.96,0.41-3.96,0.66-5.92,1.09
		c-2.32,0.93-4.72,1.12-7.18,0.81c-2.47-0.51-4.94-0.21-7.33,0.33c-5.3,1.2-10.51,0.53-15.58-0.9c-3.34-0.94-6.44-0.96-9.62,0.24
		c-3.13,0.92-7.1-1.08-9.41,2.7c-1,2.15,1.19,4.57-0.55,6.66c-2.8,2.25-6.17,2.27-9.48,2.33c-14.6,0.23-29.2,0.2-43.78-0.62
		c-5.16-0.29-10.22,0.78-15.38,0.75c-6.21-0.03-12.21-1.19-18.25-2.23c-2.48-0.43-5-1.6-4.74-4.25c0.62-6.21-2.76-8.48-7.98-9.45
		c0,0-0.48,0.12-0.48,0.12C197.99,390.93,198.11,390.34,198.22,389.74z"/>
	<path class="st0" d="M256.82,443.43c-0.19,0.93-0.74,1.72-1.9,1.62c-0.87-0.07-1.5-0.68-1.43-1.63"/>
	<path class="st4" d="M725.07,388.5c-0.05,0.29-0.09,0.58-0.12,0.87c-2.43,3.06-4.05,6.39-3.51,10.45c0.23,1.32,0.07,2.62-0.04,3.93
		c-0.79,6.59-0.89,6.7-7.36,7.68c-13.62-2.34-27.37-1.81-41.09-1.97c-1.43-6.99-1.57-7.07-8.74-7.21
		c-6.01-0.12-11.98-0.09-17.72,2.1c-1.39,0.53-2.92,0.63-4.42,0.71c-3.92,0.22-6.49-1.28-6.86-5.45c-0.27-3.03-1.89-6.2,0.73-9.01
		c2.77-1.67,5.84-0.99,8.79-1.03c8.15-0.09,16.31-0.44,24.43,0.03c11.32,0.65,22.61-0.66,33.91-0.1c4.15,0.2,8.17-1.58,12.35-1.01
		c2.25,0.31,2.24-2.18,3.7-2.81c1.34,1.97,3.93,0.93,5.53,2.28C724.79,388.13,724.93,388.31,725.07,388.5z"/>
	<path class="st5" d="M635.94,390.59c0.36,3.45,0.77,6.9,1.05,10.37c0.15,1.93,1.22,2.46,2.95,2.57c2.38,0.15,4.73-0.11,6.84-1.04
		c7.18-3.16,14.73-1.62,22.13-1.97c2.45-0.12,4.1,0.96,4.99,3.29c0.8,2.1,1.54,4.13-0.95,5.65c-8.32,0.02-16.65,0.02-24.97,0.08
		c-5.42,0.04-10.95-0.73-16,2.12c-0.37-0.09-0.74-0.18-1.11-0.27c0.81-7.47-0.9-14.89-0.45-22.36c0.17-0.21,0.35-0.42,0.52-0.63
		C632.98,388.31,634.71,388.89,635.94,390.59z"/>
	<path class="st6" d="M714.05,411.43c4.4-0.81,5.91-3.78,5.92-7.89c2.92-2.08,4.28,0.38,5.91,2.04c0,1.62,0,3.23,0,4.85
		C722.07,412.42,717.99,411.1,714.05,411.43z"/>
	<path class="st7" d="M465.07,388.58c49.91-0.02,99.83-0.09,149.74,0.01c5.39,0.01,10.75-2.71,16.15-0.2c0,0-0.2,0.37-0.2,0.37
		c-6.87,0.99-7.73,5.67-7.13,11.38c0.17,1.62-0.22,3.29-1.28,4.67c-1.27,1.23-2.85,1.73-4.55,1.73
		c-15.24-0.05-30.47,0.72-45.72,0.32c-7.08-0.18-14.23-0.06-21.35,0.15c-5.92,0.17-11.92,1.17-17.64-1.37
		c-0.21-3.46,1.2-6.71,1.29-10.15c1.21-2.9,3.72-3.86,6.49-3.69c15.43,0.9,30.86-0.85,46.32,0.29c7.89,0.58,15.9,0.65,24.7-0.36
		c-2.61-0.62-4.43-0.39-6.21-0.39c-33.57-0.02-67.14-0.02-100.71,0c-1.49,0-2.99,0.1-4.48-0.22c-8.61-0.11-17.21-0.28-25.83,0.19
		C471.35,391.49,467.26,392.9,465.07,388.58z"/>
	<path class="st8" d="M465.07,388.58c1.7,1.52,3.78,0.87,5.7,0.89c10.07,0.08,20.14,0.07,30.2,0.09c0.32,2.57-1.61,3.08-3.37,3.3
		c-4.57,0.57-9.18,1.35-13.77,0.64c-2.44-0.37-4.54-0.04-6.64,1.03c-9.78,2.15-19.61,2.29-29.52,0.99
		c-4.18-0.55-8.12,0.97-12.05,2.23c-0.75,0.24-1.46,0.14-2.16-0.2c-2.58-2.25-5.69-1.09-8.59-1.3c-7.07-0.72-14.11-1.06-21.25-0.46
		c-4.36,0.37-8.85-1.29-13.22,0.47c-2.99-0.03-5.99,0.08-8.93-0.62c-7.93-0.33-15.85-0.66-23.77-0.92
		c-2.11-0.07-4.82,1.18-5.67-2.21c3.42,0.67,5.29-2.04,7.97-3.55c-45.82,1.08-91.39,0.4-136.97,0.47c1.76-1.41,3.84-0.85,5.79-0.85
		c23.49-0.07,47,0.51,70.46-0.24c45.79-1.46,91.58-0.39,137.37-0.66C446.12,387.63,455.6,388.27,465.07,388.58z"/>
	<path class="st9" d="M759.96,385.55c-0.38,2.41-2.49,1.61-3.9,2.16c-2.13,0.83-2.61,2.26-0.38,3.45c1.81,0.96,4.34,1.66,2.54,4.09
		c-1.36,1.82-3.66,3.51-6.45,2.46c-5.45-2.04-10.99-3.3-16.82-2.04c-1.6,0.35-2.24-0.15-3.06-1.55c-1.53-2.63-3.08-5.54-6.82-5.63
		c0,0-0.17-0.02-0.17-0.02c-0.56-0.74-0.47-1.4,0.28-1.95c1.93-1.39,4.15-0.99,6.29-0.99C740.97,385.52,750.46,385.54,759.96,385.55
		z"/>
	<path class="st10" d="M725.18,386.52c-0.09,0.65-0.18,1.3-0.28,1.95c-2.09-0.6-5.66,1.85-5.78-2.81
		C721.16,385.83,723.4,384.56,725.18,386.52z"/>
	<path class="st11" d="M719.95,399.5c-0.46-4.43-1.07-8.93,5-10.13c1.95,3.24,0.7,6.8,1.01,10.2
		C723.94,401.22,721.94,401.21,719.95,399.5z"/>
	<path class="st12" d="M719.95,399.5c2,0.02,4.01,0.04,6.01,0.07c-0.03,2-0.06,4-0.09,6.01c-2.42,0.62-3.47-2.71-5.91-2.04
		C719.96,402.2,719.96,400.85,719.95,399.5z"/>
	<path class="st13" d="M432.91,411.57c-34.95-0.03-69.91-0.07-104.86-0.1c-1.18-2.59,0.74-2.8,2.4-2.91
		c2.8-0.18,5.62-0.04,8.43-0.17c-9.17,0.95-18.3-0.39-27.46-0.33c-4.5,0.03-5.45-1.16-4.76-4.8c2.39-1.78,5.14-1.26,7.73-0.98
		c5.66,0.62,11.33,0.52,16.93-0.11c3.45-0.39,6.45,1.82,9.82,0.99c1.85-0.23,3.69-0.25,5.54,0.03c3.38,1.08,6.3-1.71,9.72-1.03
		c7.28,1.44,14.74,0.96,22.09,1.7c1.21,0.12,2.3-0.15,3.41-0.5c2.94-0.34,5.83-1,8.77-1.39c11.09,0.92,22.18,2.23,33.34,0.95
		c3.25,0.37,6.49,0.68,9.77,0.65c4.17,0.51,8.45-0.43,12.55,0.98c2.68,1.72,5.88,1.65,8.64,1.3c5.97-0.76,11.83,0.18,17.74,0.18
		c7.23,0,14.46-0.64,21.68,0.27c3.52,1.04,7.06,1.81,10.77,1.81c1.48,0,3.23,0.52,3.08,2.49c-0.15,1.99-1.98,1.36-3.17,1.37
		c-16.82,0.04-33.68,0.68-50.45-0.27C447.32,411.28,440.12,412.74,432.91,411.57z"/>
	<path class="st14" d="M307.19,403.4c-1.29,3.92,1.76,3.16,3.59,3.04c10.61-0.74,21.09,2.1,31.7,1.11c0.93-0.09,2-0.27,3.14,1.26
		c-4.34,1.3-8.54,0.36-12.61,0.73c-1.8,0.16-4.2-0.97-4.96,1.94c-38.94,0-77.88,0.01-116.82,0.01c-3,0-5.99-0.05-8.99,0.04
		c-2.94,0.09-4.23-1.28-4.3-4.17c-0.13-5.32-0.3-10.64,0.42-15.94c2.8-1.91,5.5-0.01,8.18,0.37c2.01,0.29,1.49,2.26,1.36,3.71
		c-0.64,7-0.61,6.82,5.99,8.22c9.15,1.94,18.14,1.65,27.5,0.93c7.72-0.6,15.91,0.84,23.84,0.9c10.23,0.08,20.55,0.97,30.73-1
		c0.75-0.15,1.43-0.71,2.14-1.08c2.77-1.36,5.66-0.69,8.52-0.51C306.81,403.09,307,403.24,307.19,403.4z"/>
	<path class="st15" d="M432.91,411.57c12.37-3.33,24.74,0.45,37.13,0.01c12.36-0.44,24.75-0.1,37.21-0.82
		c-4.28-1.87-9.2-0.86-13.26-3.25c0.99-2.61,3.29-2.38,5.41-2.46c5.61-0.21,11.24,0.3,16.83-0.31c2.5-1.17,5.23-1.38,7.9-1.88
		c2.94,0.62,6.03,0.55,8.81,1.89c3.07,0.24,6.2,0.98,9.21,0.64c9.36-1.06,18.73,0.52,28.15-0.47c3.91-0.41,8.46,0.21,12.64,0.29
		c12.96,0.23,25.93-0.46,38.89-0.79c2.29,2.34,2.02,4.7,0.05,7.07c-30.29,0.06-60.59-0.53-90.85,0.35
		c-30.95,0.9-61.87,0.15-92.81,0.47C436.44,412.34,434.55,412.76,432.91,411.57z"/>
	<path class="st16" d="M621.89,411.5c-0.02-2.36-0.04-4.71-0.05-7.07c0.08-3.13,0.31-6.26,0.2-9.39c-0.24-6.48-0.31-6.48,6.25-6.38
		c0.82,0.01,1.65,0.06,2.47,0.1c1.47,7.53,3.9,15.06,0.13,22.62C627.89,411.43,624.89,411.46,621.89,411.5z"/>
	<path class="st17" d="M382,404.65c-4.79,0.74-9.76-0.29-14.23,0.1c-5.64,0.49-11.01-2.9-16.47-0.38c-1.46,0.68-2.98,1.82-4.4-0.11
		c-0.48-2.23,1.77-4.15,0.73-6.44c-0.39-1.4-1.89-2.64-0.67-4.29c1.69-0.34,3.38-0.68,5.07-1.02c0.86,1.01,2.03,1.16,3.18,0.91
		c8.38-1.78,16.72,1.05,25.09,0.21c0.54-0.05,1.14,0.55,1.71,0.85c0.09,1.55-1.31,2.55-1.44,4.02
		C380.53,400.68,381.79,402.54,382,404.65z"/>
	<path class="st8" d="M341.03,404.62c-0.59,0.24-1.45,0.86-1.72,0.67c-4.56-3.35-9.82-1.27-14.43-1.06
		c-6.01,0.26-11.79-0.94-17.69-0.83c0,0-0.36,0.03-0.36,0.03c-0.66-2.08,0.7-4.21-0.15-6.29c-0.15-0.88-0.27-1.75,0.18-2.59
		c4.83-3.9,9.72-0.98,14.53-0.01c4.92,0.99,9.71,0.53,14.52-0.51c1.45-0.31,2.88-0.4,4.17,0.56c0.65,1.42-0.43,2.5-0.75,3.72
		C338.38,400.83,340.57,402.5,341.03,404.62z"/>
	<path class="st18" d="M307.84,396.73c1.6,2.52,0.73,4.68-1.01,6.7c-2.91,1.44-5.82,1.19-8.74,0.02c-1.29-1.84-2.59-3.67-1.09-6.02
		C300.64,397.54,304.18,396.18,307.84,396.73z"/>
	<path class="st19" d="M266.88,396.74c1.58,1.95,1.66,3.89-0.12,5.75c-1.91,2.01-4.36,2.41-6.84,1.66c-2.62-0.8-4.1-2.68-3.82-5.61
		c0.43-0.7,1-1.64,1.81-1.35C261,398.29,263.88,396.5,266.88,396.74z"/>
	<path class="st20" d="M266.88,396.74c-2.98,4.29-7.19,1.16-10.78,1.8C258.55,393.07,263.01,392.32,266.88,396.74z"/>
	<path class="st21" d="M338.06,397.54c0.68-0.98,1.35-1.96,2.03-2.94c2.31-0.27,4.73,0.27,6.87-1.07c0.69,1.33,1.38,2.65,2.07,3.98
		C344.63,401.85,341.61,401.86,338.06,397.54z"/>
	<path class="st22" d="M307.84,396.73c-3.47,2.39-7.05,3.23-10.84,0.7c2.32-4.27,6.21-3.19,9.87-2.88
		C307.19,395.28,307.52,396.01,307.84,396.73z"/>
	<path class="st23" d="M476.99,393.45c1.94-1.94,4.22-1.67,6.78-1.66c5.78,0.02,11.87,1.46,17.2-2.23
		c37.08-0.01,74.16-0.04,111.25,0.01c1.56,0,4.28-1.08,4.33,1.73c0.04,2.5-2.54,1.84-4.24,2.25c-7.86,1.9-15.97,0.79-23.79,0.78
		c-6.9-0.01-14.09-1.28-21.08-0.68c-8.79,0.75-17.48-0.44-26.23-0.26c-3.02,0.06-4.95,0.92-6.36,3.38
		c-4.03-1.01-7.8,1.01-11.74,1.06c-6.67-2.58-13.35-2.54-20.33-1.02c-6.1,1.33-12.49-0.12-18.7,0.89c-0.71,0.28-1.42,0.33-2.14,0.04
		c-1.04-0.51-1.76-1.39-2.47-2.27C478.74,394.65,477.57,394.41,476.99,393.45z"/>
	<path class="st24" d="M524,397.45c3.43-3.14,7.02-3.74,10.84-0.69c1.94,3.27,1.52,5.99-1.89,8c-3.17,1.1-6.1,0.67-8.75-1.42
		C521.49,401.47,521.02,399.52,524,397.45z"/>
	<path class="st25" d="M476.99,393.45c0.82,0.7,2.7-1.23,2.84,1.15c-1.68,2.02-5.01,1.21-6.39,3.74c-1.29,2.37,0.04,4.43,0.78,6.55
		c0.29,2.01-0.8,2.37-2.38,1.82c-4.72-1.66-9.43-0.69-14.23-0.42c-3.81,0.21-7.75-0.35-11.61-0.77c-4.32-0.61-8.82,1.08-13.02-1.05
		c-0.39-2.66,0.94-4.81,2.06-7.03c2.46-4.53,7.52-4.02,10.84-3.62C456.34,395.07,466.63,394.65,476.99,393.45z"/>
	<path class="st26" d="M424.02,403.56c-2.18,4.27-6.04,1.2-8.74,1.38c-7.46,0.49-15.03-0.72-22.56-1.13
		c-1.02-0.06-1.52-0.21-1.66-1.19c-1.18-1.83-0.92-3.87-0.88-5.89c0.14-0.45,0.39-0.82,0.75-1.12c0.73-2.09,2.77-1.88,4.2-1.87
		c9.45,0.06,18.9,0.34,28.35,0.63c0.53,0.02,1.03,0.74,1.55,1.13c0.2,1.28-0.63,2.41-0.51,3.68
		C424.48,400.65,425.07,402.2,424.02,403.56z"/>
	<path class="st19" d="M424.02,403.56c-1.18-1.54-1.47-3.27-1.05-5.14c3.57-1.17,7.31-1.26,10.98-1.77
		c0.36,0.26,0.73,0.53,1.09,0.79c0.91,2.81,0.27,5.17-2.06,7.03C429.85,405.58,426.86,405.26,424.02,403.56z"/>
	<path class="st27" d="M390.91,395.61c-0.02,0.38-0.04,0.77-0.07,1.15c-3.43,4.99-6.77,5.28-11.58,1c0.24-1.66,1.53-2.44,2.75-3.27
		C385,394.73,388.14,393.74,390.91,395.61z"/>
	<path class="st28" d="M433.95,396.65c-3.18,3.59-7.06,2.83-10.98,1.77c-0.01-1.46,0.91-2.27,2.04-2.93
		C428.17,394.51,431.4,392.98,433.95,396.65z"/>
	<path class="st29" d="M446,405.52c3.13-1.31,6.14-3.24,9.55-0.3c0.79,0.68,2.83,0.71,3.83,0.17c4.54-2.45,8.66-1.98,12.97,0.62
		c1.29,0.78,0.81-0.74,0.68-1.43c2.91-1.79,6.19-0.69,9.27-1.22c10.21-1.31,20.46,0.01,30.69-0.45c1.94-0.09,4.49-0.44,5.01,2.61
		c-3.41,2.06-7.15,0.58-10.71,0.97c-4.42,0.49-8.99-0.95-13.3,1.03c-11.15-0.92-22.32,0.8-33.51-0.61c-3.02-0.38-6.5,0.55-9.79,0.59
		C448.83,407.52,447.01,407.51,446,405.52z"/>
	<path class="st30" d="M379.27,397.76c4.05,1.88,7.96,2.13,11.58-1c1.3,1.91,1.28,3.87,0.2,5.86c-2.61,2.5-5.89,1.99-9.05,2.04
		C378.96,403.2,378.82,400.6,379.27,397.76z"/>
	<path class="st31" d="M338.06,397.54c3.67,3.13,7.32,1.18,10.97-0.04c1.64,2.99-0.34,4.84-2.13,6.75
		c-1.96,0.12-3.92,0.24-5.88,0.36C337.14,403.48,337.02,400.75,338.06,397.54z"/>
	<path class="st32" d="M518,405.52c-1.82-1.71-4.12-1.12-6.13-0.92c-9.46,0.93-18.97-1.2-28.41,0.53c-0.47,0.09-1.07-0.55-1.61-0.85
		c-0.28-2.43,0.79-4.65,1.14-6.98c0.74-2.53,2.87-1.79,4.55-1.8c7.74-0.06,15.44,0.13,23.11-1.76c4.79-1.18,9.31,0.96,13.35,3.72
		c-1,2-0.82,3.96,0.2,5.89C523.03,406.62,519.74,403.86,518,405.52z"/>
	<path class="st33" d="M482.99,397.3c1.92,2.7,0.96,4.93-1.14,6.98c-2.89,1.54-5.84,1.39-8.82,0.3c-1.96-2.14-3.21-4.36-0.81-7
		c3.2-0.21,6.34-0.93,9.55-0.99C482.18,396.82,482.59,397.06,482.99,397.3z"/>
	<path class="st34" d="M481.78,396.58c-2.89,3.11-6.08,3.43-9.55,0.99c1.63-3.29,4.71-2.88,7.59-2.97
		C480.27,395.47,481.71,395.35,481.78,396.58z"/>
</g>
</svg>
